<svg id="visual" viewBox="0 0 960 540" width="960" height="540" xmlns="http://www.w3.org/2000/svg" xmlns:xlink="http://www.w3.org/1999/xlink" version="1.1"><rect x="0" y="0" width="960" height="540" fill="#1e293b"></rect><path d="M0 389L22.8 374.2C45.7 359.3 91.3 329.7 137 336.5C182.7 343.3 228.3 386.7 274 398.2C319.7 409.7 365.3 389.3 411.2 371.7C457 354 503 339 548.8 342.2C594.7 345.3 640.3 366.7 686 388C731.7 409.3 777.3 430.7 823 423.5C868.7 416.3 914.3 380.7 937.2 362.8L960 345L960 541L937.2 541C914.3 541 868.7 541 823 541C777.3 541 731.7 541 686 541C640.3 541 594.7 541 548.8 541C503 541 457 541 411.2 541C365.3 541 319.7 541 274 541C228.3 541 182.7 541 137 541C91.3 541 45.7 541 22.8 541L0 541Z" fill="#334155" stroke-linecap="round" stroke-linejoin="miter"></path></svg>